<?xml version="1.0" encoding="utf-8"?>
<!-- Generator: Adobe Illustrator 26.2.1, SVG Export Plug-In . SVG Version: 6.00 Build 0)  -->
<svg version="1.1" id="Layer_1" xmlns="http://www.w3.org/2000/svg" xmlns:xlink="http://www.w3.org/1999/xlink" x="0px" y="0px"
	 viewBox="0 0 255.2 71.4" style="enable-background:new 0 0 255.2 71.4;" xml:space="preserve">
<style type="text/css">
	.st0{fill:#005257;}
</style>
<g transform="scale(1.23) translate(-81 -8.35)">
	<path class="st0" d="M108.5,54.6c-0.7,0.7-1.8,0.7-2.5,0l-7.3-7.3c-0.5-0.5-0.8-1.3-0.8-2v-8.8c0-0.6,0.5-1.1,1.1-1.1
		c0.3,0,0.5,0.1,0.7,0.3l7.6,7.6l24.2-24.2c-5.8-0.9-14-3.4-19.9-9.8c-0.6-0.7-1.7-0.7-2.4-0.1c0,0-0.1,0.1-0.1,0.1
		c-8.2,8.9-20.9,10.2-25.4,10.3c-0.9,0-1.7,0.8-1.6,1.8c0,0,0,0.1,0,0.1c0.5,7.6,4.1,36.3,27.4,44.3c0.6,0.2,1.2,0.2,1.8,0
		c20.8-7.1,25.8-30.5,27.1-41L108.5,54.6z"/>
	<path class="st0" d="M153.1,25.7v-2.1l0.8-0.1c0.5,0,0.7-0.3,0.7-0.7V11.3l-1.4-0.1V9.1h7.1c1.6-0.1,3.1,0.4,4.4,1.3
		c1.1,1,1.7,2.5,1.6,3.9c0.1,1.6-0.6,3.1-1.8,4.1c-1.3,1-3,1.5-4.7,1.5h-2.1v3.6l2.4,0.1v2.1H153.1z M157.8,17.5h1.8
		c2.4,0,3.6-1,3.6-3c0.1-0.9-0.2-1.8-0.9-2.4c-0.9-0.5-2-0.7-3-0.6h-1.5L157.8,17.5z"/>
	<path class="st0" d="M167.3,25.7v-2.1l0.8-0.1c0.5,0,0.7-0.3,0.7-0.7V11.3l-1.4-0.1V9.1h7.1c1.6-0.1,3.1,0.4,4.4,1.3
		c1.1,1,1.7,2.5,1.6,3.9c0.1,1.6-0.6,3.1-1.8,4.1c-1.3,1-3,1.5-4.7,1.5h-2.1v3.6l2.4,0.1v2.1H167.3z M171.9,17.5h1.8
		c2.4,0,3.6-1,3.6-3c0.1-0.9-0.2-1.8-0.9-2.4c-0.9-0.5-2-0.7-3-0.6h-1.5L171.9,17.5z"/>
	<path class="st0" d="M186.9,23.5c2,0,3-0.8,3-2.4c0-0.8-0.5-1.6-1.3-1.8c-0.6-0.3-1.2-0.5-1.8-0.7c-0.6-0.2-1.2-0.4-1.9-0.6
		c-0.5-0.2-1-0.5-1.5-0.9c-1-0.8-1.6-2.1-1.5-3.4c-0.1-1.4,0.5-2.7,1.6-3.6c1.2-0.9,2.7-1.4,4.1-1.3c1.6,0,3.3,0.3,4.8,1v3.8
		l-2.6,0.2v-1.4c0-0.2,0-0.4-0.1-0.5c-0.2-0.3-0.8-0.5-1.8-0.5c-0.8-0.1-1.5,0.1-2.2,0.5c-0.5,0.4-0.8,1-0.7,1.6
		c0,0.5,0.2,1,0.6,1.4c0.3,0.3,0.7,0.5,1.2,0.7l1.7,0.5c0.5,0.2,1.1,0.4,1.6,0.6c0.5,0.3,1,0.6,1.4,0.9c1.1,0.8,1.6,2.1,1.5,3.5
		c0.1,1.4-0.6,2.8-1.7,3.7c-1.3,1-2.9,1.4-4.4,1.4c-1.7,0-3.4-0.3-5-1v-4l2.6-0.2v1.5c0,0.2,0,0.4,0.1,0.5c0.1,0.1,0.3,0.2,0.6,0.3
		C185.8,23.4,186.3,23.5,186.9,23.5z"/>
	<path class="st0" d="M194.3,25.7v-2.1l0.8-0.1c0.5,0,0.7-0.3,0.7-0.7V11.3l-1.4-0.1V9.1h6.8c1.6-0.1,3.1,0.3,4.4,1.1
		c1.1,0.8,1.7,2.1,1.6,3.5c0,1-0.3,2-0.9,2.8c-0.6,0.7-1.3,1.3-2.1,1.6c0.7,0.3,1.2,0.9,1.4,1.6l1.8,3.9h1.4v2.1h-6.2v-2l0.7-0.1
		c0.4-0.1,0.6-0.2,0.6-0.5c0-0.1,0-0.2-0.1-0.3l-1.2-2.5c-0.1-0.3-0.3-0.6-0.6-0.9c-0.3-0.2-0.6-0.3-1-0.3h-2.3v4.3l1.6,0.1v2.1
		L194.3,25.7z M198.9,16.8h2.2c2.1,0,3.1-0.9,3.1-2.8c0-1-0.3-1.7-0.8-2c-0.8-0.4-1.7-0.5-2.6-0.5h-1.8V16.8z"/>
	<path class="st0" d="M152.8,44.9V33.5h4.7c0.5,0,0.9,0.1,1.4,0.3c0.4,0.2,0.8,0.5,1.1,0.8c0.3,0.3,0.5,0.7,0.7,1.1
		c0.2,0.4,0.3,0.9,0.3,1.3c0,0.9-0.3,1.8-0.9,2.5c-0.3,0.3-0.6,0.6-1,0.8c-0.4,0.2-0.9,0.3-1.3,0.3h-3.7v4.2H152.8z M153.9,39.7h3.6
		c0.3,0,0.6-0.1,0.9-0.2c0.3-0.1,0.5-0.3,0.7-0.6c0.2-0.2,0.3-0.5,0.4-0.8c0.1-0.3,0.2-0.7,0.2-1c0-0.3-0.1-0.7-0.2-1
		c-0.1-0.3-0.3-0.6-0.5-0.8c-0.2-0.2-0.4-0.4-0.7-0.5c-0.3-0.1-0.6-0.2-0.9-0.2h-3.5L153.9,39.7z"/>
	<path class="st0" d="M165.9,45c-0.6,0-1.1-0.1-1.7-0.3c-0.5-0.2-1-0.6-1.3-1c-0.4-0.4-0.7-0.9-0.9-1.4c-0.2-0.5-0.3-1.1-0.3-1.7
		c0-0.6,0.1-1.1,0.3-1.7c0.2-0.5,0.5-1,0.9-1.4c0.4-0.4,0.8-0.7,1.3-0.9c0.5-0.2,1.1-0.3,1.7-0.3c0.6,0,1.1,0.1,1.7,0.3
		c0.5,0.2,0.9,0.5,1.3,0.9c0.4,0.4,0.7,0.9,0.9,1.4c0.2,0.5,0.3,1.1,0.3,1.6v0.3c0,0.1,0,0.1,0,0.2h-7.1c0,0.4,0.1,0.8,0.3,1.2
		c0.2,0.4,0.4,0.7,0.7,1c0.3,0.3,0.6,0.5,0.9,0.7c0.4,0.2,0.7,0.2,1.1,0.2c0.3,0,0.5,0,0.8-0.1c0.3-0.1,0.5-0.2,0.7-0.3
		c0.2-0.1,0.4-0.3,0.6-0.5c0.2-0.2,0.3-0.4,0.4-0.6l1,0.3c-0.1,0.3-0.3,0.6-0.6,0.8c-0.2,0.3-0.5,0.5-0.8,0.7
		c-0.3,0.2-0.6,0.3-1,0.4C166.7,45,166.3,45,165.9,45z M168.9,40.2c0-0.4-0.1-0.8-0.3-1.2c-0.2-0.4-0.4-0.7-0.7-1
		c-0.3-0.3-0.6-0.5-0.9-0.6c-0.4-0.1-0.8-0.2-1.1-0.2c-0.4,0-0.8,0.1-1.1,0.2c-0.4,0.1-0.7,0.4-0.9,0.6c-0.3,0.3-0.5,0.6-0.7,1
		c-0.2,0.4-0.3,0.8-0.3,1.2L168.9,40.2z"/>
	<path class="st0" d="M175.8,37.5c-0.7,0-1.4,0.2-1.9,0.6c-0.5,0.4-0.9,0.9-1.2,1.6v5.2h-1.1v-8.3h1v2c0.3-0.6,0.7-1.1,1.2-1.5
		c0.5-0.4,1.1-0.5,1.7-0.5h0.2L175.8,37.5z"/>
	<path class="st0" d="M179.9,45c-0.6,0-1.3-0.1-1.9-0.3c-0.6-0.2-1.1-0.5-1.6-0.9l0.5-0.7c0.4,0.4,0.9,0.6,1.4,0.9
		c0.5,0.2,1,0.3,1.6,0.3c0.6,0,1.1-0.1,1.6-0.4c0.4-0.3,0.6-0.7,0.6-1.2c0-0.2,0-0.4-0.2-0.6c-0.1-0.2-0.3-0.3-0.5-0.4
		c-0.2-0.1-0.5-0.2-0.8-0.3c-0.3-0.1-0.7-0.2-1.1-0.3s-0.9-0.2-1.2-0.4c-0.3-0.1-0.6-0.2-0.9-0.4c-0.2-0.1-0.4-0.3-0.5-0.5
		c-0.1-0.3-0.2-0.5-0.2-0.8c0-0.4,0.1-0.8,0.2-1.1c0.2-0.3,0.4-0.6,0.7-0.8c0.3-0.2,0.6-0.4,1-0.5c0.4-0.1,0.8-0.2,1.2-0.2
		c0.6,0,1.2,0.1,1.8,0.3c0.5,0.2,0.9,0.5,1.3,0.8l-0.5,0.6c-0.3-0.3-0.7-0.6-1.1-0.7c-0.4-0.2-0.9-0.2-1.4-0.2c-0.3,0-0.5,0-0.8,0.1
		c-0.2,0.1-0.4,0.2-0.6,0.3c-0.2,0.1-0.3,0.3-0.4,0.5c-0.1,0.2-0.2,0.5-0.2,0.7c0,0.2,0,0.4,0.1,0.5c0.1,0.2,0.2,0.3,0.4,0.4
		c0.2,0.1,0.4,0.2,0.6,0.3c0.3,0.1,0.6,0.2,0.9,0.2c0.5,0.1,1,0.3,1.4,0.4c0.4,0.1,0.7,0.2,1,0.4c0.5,0.3,0.8,0.9,0.8,1.5
		c0,0.7-0.3,1.4-0.9,1.8C181.6,44.8,180.7,45.1,179.9,45z"/>
	<path class="st0" d="M188.4,45c-0.6,0-1.1-0.1-1.7-0.4c-0.5-0.2-0.9-0.5-1.3-0.9c-0.4-0.4-0.7-0.9-0.9-1.4
		c-0.2-0.5-0.3-1.1-0.3-1.6c0-0.6,0.1-1.1,0.3-1.7c0.2-0.5,0.5-1,0.9-1.4c0.4-0.4,0.8-0.8,1.3-1c0.5-0.2,1.1-0.4,1.6-0.3
		c0.6,0,1.1,0.1,1.7,0.3c0.5,0.2,0.9,0.6,1.3,1c0.4,0.4,0.7,0.9,0.9,1.4c0.2,0.5,0.3,1.1,0.3,1.7c0,0.6-0.1,1.1-0.3,1.6
		c-0.2,0.5-0.5,1-0.9,1.4c-0.4,0.4-0.8,0.7-1.3,0.9C189.5,44.9,189,45,188.4,45z M185.4,40.7c0,0.4,0.1,0.9,0.2,1.3
		c0.2,0.4,0.4,0.7,0.6,1c0.3,0.3,0.6,0.6,1,0.7c0.4,0.2,0.8,0.3,1.2,0.3c0.4,0,0.8-0.1,1.2-0.3c0.4-0.2,0.7-0.4,1-0.7
		c0.3-0.3,0.5-0.7,0.6-1.1c0.3-0.8,0.3-1.8,0-2.6c-0.2-0.4-0.4-0.8-0.6-1.1c-0.3-0.3-0.6-0.5-1-0.7c-0.7-0.3-1.6-0.3-2.4,0
		c-0.4,0.2-0.7,0.4-1,0.7c-0.3,0.3-0.5,0.7-0.6,1.1C185.4,39.8,185.3,40.3,185.4,40.7L185.4,40.7z"/>
	<path class="st0" d="M201.3,44.9h-1.1v-4.7c0.1-0.7-0.1-1.5-0.4-2.2c-0.3-0.4-0.8-0.7-1.4-0.7c-0.3,0-0.7,0.1-1,0.2
		c-0.3,0.1-0.6,0.3-0.9,0.5c-0.3,0.2-0.5,0.5-0.7,0.8c-0.2,0.3-0.4,0.6-0.5,1v5.1h-1v-8.4h1v1.9c0.3-0.6,0.9-1.1,1.5-1.5
		c0.6-0.4,1.3-0.6,2.1-0.6c0.4,0,0.8,0.1,1.2,0.3c0.3,0.2,0.6,0.4,0.8,0.7c0.2,0.3,0.4,0.7,0.4,1.1c0.1,0.5,0.1,1,0.1,1.5
		L201.3,44.9z"/>
	<path class="st0" d="M205.6,45c-0.4,0-0.7-0.1-1.1-0.2c-0.3-0.1-0.6-0.3-0.9-0.5c-0.5-0.5-0.8-1.1-0.8-1.8c0-0.3,0.1-0.7,0.3-1
		c0.2-0.3,0.4-0.6,0.7-0.8c0.3-0.2,0.7-0.4,1.1-0.5c0.5-0.1,0.9-0.2,1.4-0.2c0.4,0,0.9,0,1.3,0.1c0.4,0.1,0.8,0.2,1.2,0.3v-0.8
		c0-0.6-0.2-1.3-0.6-1.8c-0.5-0.4-1.1-0.7-1.7-0.6c-0.4,0-0.9,0.1-1.3,0.2c-0.5,0.2-0.9,0.4-1.4,0.7l-0.4-0.7c0.9-0.7,2-1.1,3.1-1.1
		c0.9-0.1,1.8,0.3,2.5,0.9c0.6,0.7,0.9,1.5,0.9,2.4v3.8c0,0.3,0.1,0.5,0.4,0.5v1c-0.1,0-0.3,0-0.4,0c-0.2,0-0.5-0.1-0.6-0.2
		c-0.2-0.1-0.3-0.4-0.2-0.6v-0.7c-0.4,0.5-0.9,0.9-1.5,1.2C206.9,44.9,206.3,45,205.6,45z M205.9,44.2c0.5,0,1.1-0.1,1.6-0.3
		c0.4-0.2,0.8-0.5,1.1-0.8c0.1-0.1,0.2-0.2,0.2-0.3c0-0.1,0.1-0.2,0.1-0.3V41c-0.4-0.1-0.7-0.2-1.1-0.3c-0.4-0.1-0.8-0.1-1.2-0.1
		c-0.7,0-1.3,0.1-1.9,0.5c-0.4,0.3-0.7,0.7-0.7,1.3c0,0.2,0.1,0.5,0.1,0.7c0.1,0.2,0.2,0.4,0.4,0.6c0.2,0.2,0.4,0.3,0.6,0.4
		C205.4,44.1,205.6,44.2,205.9,44.2z"/>
	<path class="st0" d="M212.2,33.2h1.1V43c0,0.3,0.1,0.5,0.3,0.7c0.2,0.2,0.5,0.3,0.7,0.3c0.1,0,0.3,0,0.4,0l0.4-0.1l0.2,0.8
		c-0.2,0.1-0.5,0.2-0.7,0.2c-0.3,0-0.5,0.1-0.8,0.1c-0.8,0.1-1.6-0.5-1.6-1.4c0-0.1,0-0.2,0-0.3L212.2,33.2z"/>
	<path class="st0" d="M220.5,44.9V33.5h4.7c0.5,0,0.9,0.1,1.4,0.3c0.4,0.2,0.8,0.5,1.1,0.8c0.3,0.3,0.5,0.7,0.7,1.1
		c0.2,0.4,0.3,0.9,0.2,1.3c0,0.5-0.1,0.9-0.2,1.3c-0.2,0.4-0.4,0.8-0.7,1.1c-0.3,0.3-0.6,0.6-1,0.8c-0.4,0.2-0.9,0.3-1.3,0.3h-3.7
		v4.2H220.5z M221.6,39.7h3.6c0.3,0,0.6-0.1,0.9-0.2c0.3-0.1,0.5-0.3,0.7-0.6c0.2-0.2,0.3-0.5,0.4-0.8c0.1-0.3,0.2-0.7,0.2-1
		c0-0.3-0.1-0.7-0.2-1c-0.1-0.3-0.3-0.6-0.5-0.8c-0.2-0.2-0.5-0.4-0.7-0.5c-0.3-0.1-0.6-0.2-0.9-0.2h-3.5L221.6,39.7z"/>
	<path class="st0" d="M234.2,37.5c-0.7,0-1.4,0.2-1.9,0.6c-0.5,0.4-0.9,0.9-1.2,1.6v5.2H230v-8.3h1v2c0.3-0.6,0.7-1.1,1.2-1.5
		c0.5-0.4,1.1-0.5,1.7-0.5h0.2L234.2,37.5z"/>
	<path class="st0" d="M238.7,45c-0.6,0-1.1-0.1-1.7-0.3c-0.5-0.2-0.9-0.5-1.3-0.9c-0.4-0.4-0.7-0.9-0.9-1.4
		c-0.2-0.5-0.3-1.1-0.3-1.6c0-1.1,0.4-2.2,1.2-3c0.4-0.4,0.8-0.8,1.3-1c1.1-0.5,2.2-0.5,3.3,0c0.5,0.2,0.9,0.6,1.3,1
		c0.4,0.4,0.7,0.9,0.9,1.4c0.2,0.5,0.3,1.1,0.3,1.7c0,0.6-0.1,1.1-0.3,1.6c-0.2,0.5-0.5,1-0.9,1.4C240.9,44.6,239.8,45.1,238.7,45
		L238.7,45z M235.7,40.7c0,0.9,0.3,1.7,0.9,2.4c0.3,0.3,0.6,0.6,1,0.7c0.4,0.2,0.8,0.3,1.2,0.3c0.4,0,0.8-0.1,1.2-0.3
		c0.4-0.2,0.7-0.4,1-0.7c0.3-0.3,0.5-0.7,0.7-1.1c0.5-1.3,0.2-2.7-0.7-3.7c-0.3-0.3-0.6-0.5-1-0.7c-0.4-0.2-0.8-0.3-1.2-0.3
		c-0.4,0-0.8,0.1-1.2,0.3c-0.4,0.2-0.7,0.4-1,0.7c-0.3,0.3-0.5,0.7-0.7,1.1C235.8,39.8,235.7,40.3,235.7,40.7L235.7,40.7z"/>
	<path class="st0" d="M248.9,45c-0.7,0-1.3-0.2-1.9-0.5c-0.5-0.3-1-0.8-1.3-1.3v5.1h-1.1V36.5h1v1.6c0.3-0.5,0.8-1,1.3-1.3
		c0.5-0.3,1.2-0.5,1.8-0.5c0.5,0,1.1,0.1,1.6,0.4c0.5,0.2,0.9,0.6,1.2,1c0.7,0.8,1.1,1.9,1.1,3c0,0.6-0.1,1.1-0.3,1.7
		c-0.2,0.5-0.4,1-0.8,1.4c-0.3,0.4-0.7,0.7-1.2,0.9C250,44.9,249.4,45,248.9,45z M248.6,44c0.4,0,0.8-0.1,1.2-0.3
		c0.4-0.2,0.7-0.4,0.9-0.8c0.3-0.3,0.5-0.7,0.6-1.1c0.1-0.4,0.2-0.8,0.2-1.2c0-0.4-0.1-0.9-0.2-1.3c-0.2-0.4-0.4-0.8-0.6-1.1
		c-0.3-0.3-0.6-0.6-1-0.7c-0.4-0.2-0.8-0.3-1.2-0.3c-0.3,0-0.6,0.1-0.9,0.2c-0.3,0.1-0.6,0.3-0.9,0.5c-0.3,0.2-0.5,0.4-0.7,0.7
		c-0.2,0.2-0.3,0.5-0.4,0.8V42c0.1,0.3,0.3,0.6,0.5,0.8c0.2,0.2,0.4,0.5,0.7,0.7c0.2,0.2,0.5,0.3,0.8,0.4
		C248,44,248.3,44.1,248.6,44L248.6,44z"/>
	<path class="st0" d="M258.1,45c-0.6,0-1.1-0.1-1.7-0.4c-0.5-0.2-1-0.6-1.3-1c-0.4-0.4-0.7-0.9-0.9-1.4c-0.2-0.5-0.3-1.1-0.3-1.7
		c0-0.6,0.1-1.1,0.3-1.7c0.2-0.5,0.5-1,0.9-1.4c1.2-1.2,3.1-1.6,4.6-0.9c0.5,0.2,0.9,0.5,1.3,0.9c0.4,0.4,0.6,0.9,0.9,1.4
		c0.2,0.5,0.3,1.1,0.3,1.6v0.3c0,0.1,0,0.1,0,0.2h-7.1c0,0.4,0.1,0.8,0.3,1.2c0.2,0.4,0.4,0.7,0.7,1c0.3,0.3,0.6,0.5,0.9,0.7
		c0.4,0.2,0.8,0.2,1.1,0.2c0.3,0,0.5,0,0.8-0.1c0.3-0.1,0.5-0.2,0.7-0.3c0.2-0.1,0.4-0.3,0.6-0.5c0.2-0.2,0.3-0.4,0.4-0.6l0.9,0.3
		c-0.1,0.3-0.3,0.6-0.5,0.8c-0.2,0.3-0.5,0.5-0.8,0.7c-0.3,0.2-0.6,0.3-1,0.4C258.9,44.9,258.5,45,258.1,45z M261.2,40.2
		c0-0.4-0.1-0.8-0.3-1.2c-0.2-0.4-0.4-0.7-0.7-1c-0.3-0.3-0.6-0.5-1-0.6c-0.7-0.3-1.6-0.3-2.3,0c-0.4,0.1-0.7,0.4-1,0.6
		c-0.3,0.3-0.5,0.6-0.6,1c-0.2,0.4-0.3,0.8-0.3,1.2L261.2,40.2z"/>
	<path class="st0" d="M268,37.5c-0.7,0-1.4,0.2-1.9,0.6c-0.5,0.4-0.9,0.9-1.2,1.6v5.2h-1.1v-8.3h1v2c0.3-0.6,0.7-1.1,1.2-1.5
		c0.5-0.3,1.1-0.5,1.7-0.5h0.2L268,37.5z"/>
	<path class="st0" d="M273.8,44.5l-0.3,0.1l-0.4,0.2c-0.2,0.1-0.4,0.1-0.5,0.1c-0.2,0-0.4,0.1-0.6,0.1c-0.2,0-0.5,0-0.7-0.1
		c-0.2-0.1-0.4-0.2-0.6-0.3c-0.2-0.1-0.3-0.3-0.4-0.5c-0.1-0.2-0.1-0.5-0.1-0.7v-6H269v-0.9h1.1v-2.8h1.1v2.8h1.9v0.9h-1.9V43
		c0,0.3,0.1,0.5,0.3,0.7c0.2,0.1,0.4,0.2,0.7,0.2c0.3,0,0.6,0,0.8-0.2c0.2-0.1,0.3-0.1,0.5-0.2L273.8,44.5z"/>
	<path class="st0" d="M275.7,47.4h0.2h0.2c0.2,0,0.3,0,0.4-0.1c0.1-0.1,0.3-0.2,0.3-0.3c0.1-0.2,0.3-0.5,0.4-0.8
		c0.1-0.3,0.3-0.8,0.6-1.4l-3.6-8.3h1.1l3.1,7.3l2.9-7.3h1L278,47.3c-0.1,0.3-0.3,0.6-0.6,0.8c-0.3,0.2-0.7,0.4-1.1,0.3H276
		c-0.1,0-0.2,0-0.4,0L275.7,47.4z"/>
	<path class="st0" d="M159.5,51.7c-0.4-0.4-0.8-0.7-1.3-0.9c-0.6-0.2-1.2-0.4-1.8-0.3c-0.8-0.1-1.5,0.1-2.2,0.6
		c-0.5,0.4-0.7,0.9-0.7,1.5c0,0.3,0.1,0.6,0.2,0.8c0.1,0.2,0.3,0.4,0.6,0.6c0.3,0.2,0.6,0.3,1,0.4c0.4,0.1,0.9,0.2,1.4,0.3
		c0.6,0.1,1.1,0.3,1.6,0.4c0.4,0.1,0.9,0.3,1.2,0.6c0.3,0.2,0.6,0.5,0.8,0.9c0.2,0.4,0.3,0.8,0.3,1.3c0,0.5-0.1,0.9-0.3,1.4
		c-0.2,0.4-0.5,0.7-0.9,1c-0.4,0.3-0.8,0.5-1.3,0.6c-0.5,0.1-1.1,0.2-1.6,0.2c-1.7,0-3.3-0.6-4.6-1.7l0.6-0.9
		c0.2,0.2,0.5,0.4,0.7,0.6c0.3,0.2,0.6,0.4,1,0.5c0.4,0.1,0.7,0.3,1.1,0.3c0.4,0.1,0.8,0.1,1.2,0.1c0.7,0,1.5-0.1,2.1-0.5
		c0.5-0.3,0.8-0.9,0.8-1.5c0-0.3-0.1-0.6-0.2-0.9c-0.2-0.3-0.4-0.5-0.6-0.6c-0.3-0.2-0.7-0.3-1.1-0.4c-0.4-0.1-0.9-0.3-1.5-0.4
		c-0.5-0.1-1-0.3-1.6-0.4c-0.4-0.1-0.8-0.3-1.1-0.6c-0.3-0.2-0.5-0.5-0.7-0.8c-0.2-0.4-0.3-0.8-0.3-1.2c0-0.5,0.1-1,0.3-1.4
		c0.2-0.4,0.5-0.7,0.8-1c0.4-0.3,0.8-0.5,1.3-0.6c0.5-0.2,1.1-0.2,1.6-0.2c0.7,0,1.4,0.1,2,0.3c0.6,0.2,1.1,0.6,1.6,1L159.5,51.7z"
		/>
	<path class="st0" d="M166,61c-0.6,0-1.1-0.1-1.6-0.4c-0.5-0.2-1-0.6-1.3-1c-0.4-0.4-0.7-0.9-0.9-1.4c-0.2-0.5-0.3-1.1-0.3-1.7
		c0-0.6,0.1-1.1,0.3-1.7c0.2-0.5,0.5-1,0.9-1.4c0.8-0.8,1.9-1.3,3-1.3c0.6,0,1.1,0.1,1.7,0.3c0.5,0.2,0.9,0.5,1.3,0.9
		c0.8,0.8,1.2,1.9,1.1,3v0.3c0,0.1,0,0.1,0,0.2H163c0,0.4,0.1,0.8,0.3,1.2c0.2,0.4,0.4,0.7,0.7,1c0.3,0.3,0.6,0.5,1,0.7
		c0.4,0.2,0.8,0.2,1.1,0.2c0.3,0,0.5,0,0.8-0.1c0.3-0.1,0.5-0.2,0.7-0.3c0.2-0.1,0.4-0.3,0.6-0.5c0.2-0.2,0.3-0.4,0.4-0.6l0.9,0.3
		c-0.1,0.3-0.3,0.6-0.5,0.8c-0.2,0.3-0.5,0.5-0.8,0.7c-0.3,0.2-0.6,0.3-1,0.4C166.8,61,166.4,61,166,61z M169,56.2
		c0-0.4-0.1-0.8-0.3-1.2c-0.2-0.4-0.4-0.7-0.7-1c-0.3-0.3-0.6-0.5-1-0.6c-0.4-0.2-0.7-0.2-1.1-0.2c-0.4,0-0.8,0.1-1.1,0.2
		c-0.4,0.1-0.7,0.4-0.9,0.6c-0.3,0.3-0.5,0.6-0.7,1c-0.2,0.4-0.3,0.8-0.3,1.2L169,56.2z"/>
	<path class="st0" d="M171.2,56.7c0-0.6,0.1-1.1,0.3-1.7c0.2-0.5,0.5-1,0.9-1.4c0.4-0.4,0.8-0.7,1.3-0.9c0.5-0.2,1.1-0.3,1.7-0.3
		c0.7,0,1.4,0.2,2.1,0.5c0.6,0.3,1,0.8,1.3,1.4l-1,0.3c-0.2-0.4-0.6-0.8-1-1c-0.4-0.2-0.9-0.4-1.4-0.4c-0.4,0-0.8,0.1-1.2,0.3
		c-0.4,0.2-0.7,0.4-1,0.7c-0.3,0.3-0.5,0.7-0.6,1.1c-0.2,0.4-0.2,0.9-0.2,1.3c0,0.5,0.1,0.9,0.2,1.3c0.2,0.4,0.4,0.8,0.7,1.1
		c0.3,0.3,0.6,0.5,1,0.7c0.4,0.2,0.8,0.3,1.2,0.3c0.3,0,0.5,0,0.8-0.1c0.3-0.1,0.5-0.2,0.7-0.3c0.2-0.1,0.4-0.3,0.6-0.5
		c0.1-0.2,0.3-0.3,0.3-0.5l1.1,0.3c-0.1,0.3-0.3,0.6-0.5,0.8c-0.2,0.3-0.5,0.5-0.8,0.7c-0.3,0.2-0.6,0.3-1,0.4
		c-0.4,0.1-0.8,0.2-1.1,0.2c-0.6,0-1.2-0.1-1.7-0.4c-0.5-0.2-1-0.6-1.3-1c-0.4-0.4-0.7-0.9-0.9-1.4
		C171.3,57.8,171.2,57.2,171.2,56.7z"/>
	<path class="st0" d="M183,61c-0.8,0.1-1.5-0.3-2-0.9c-0.5-0.8-0.7-1.8-0.7-2.7v-4.9h1.1v4.7c0,1.9,0.6,2.8,1.9,2.8
		c0.3,0,0.6-0.1,0.9-0.2c0.3-0.1,0.6-0.3,0.9-0.5c0.3-0.2,0.5-0.5,0.7-0.7c0.2-0.3,0.4-0.6,0.5-1v-5.2h1.1v6.9
		c0,0.3,0.1,0.4,0.4,0.4v1h-0.3h-0.2c-0.2,0-0.5-0.1-0.6-0.3c-0.2-0.2-0.2-0.4-0.2-0.7v-1c-0.3,0.6-0.9,1.2-1.5,1.5
		C184.4,60.8,183.7,61,183,61z"/>
	<path class="st0" d="M194,53.5c-0.7,0-1.4,0.2-1.9,0.6c-0.5,0.4-0.9,0.9-1.1,1.6v5.2h-1.1v-8.3h1v2c0.3-0.6,0.7-1.1,1.2-1.5
		c0.5-0.3,1.1-0.5,1.7-0.5h0.2L194,53.5z"/>
	<path class="st0" d="M195.3,50.8v-1.6h1.1v1.6H195.3z M195.3,60.9v-8.3h1.1v8.3L195.3,60.9z"/>
	<path class="st0" d="M202.7,60.5c-0.1,0-0.2,0.1-0.3,0.1c-0.1,0-0.3,0.1-0.4,0.2c-0.2,0.1-0.4,0.1-0.5,0.1c-0.2,0-0.4,0.1-0.6,0.1
		c-0.2,0-0.5,0-0.7-0.1c-0.2-0.1-0.4-0.2-0.6-0.3c-0.2-0.1-0.3-0.3-0.4-0.5c-0.1-0.2-0.1-0.5-0.1-0.7v-6h-1.2v-0.9h1.2v-2.8h1.1v2.8
		h1.9v0.9h-1.9V59c0,0.3,0.1,0.5,0.3,0.7c0.2,0.1,0.4,0.2,0.7,0.2c0.3,0,0.6,0,0.8-0.2c0.2-0.1,0.3-0.1,0.4-0.2L202.7,60.5z"/>
	<path class="st0" d="M203.9,50.8v-1.6h1.1v1.6H203.9z M203.9,60.9v-8.3h1.1v8.3L203.9,60.9z"/>
	<path class="st0" d="M211,61c-0.6,0-1.1-0.1-1.7-0.4c-0.5-0.2-1-0.6-1.3-1c-0.4-0.4-0.7-0.9-0.9-1.4c-0.2-0.5-0.3-1.1-0.3-1.7
		c0-1.1,0.4-2.2,1.2-3c1.2-1.2,3.1-1.6,4.7-0.9c0.5,0.2,0.9,0.5,1.3,0.9c0.8,0.8,1.2,1.9,1.1,3v0.3c0,0.1,0,0.1,0,0.2H208
		c0,0.4,0.1,0.8,0.3,1.2c0.2,0.4,0.4,0.7,0.7,1c0.3,0.3,0.6,0.5,1,0.7c0.4,0.2,0.7,0.2,1.1,0.2c0.3,0,0.5,0,0.8-0.1
		c0.3-0.1,0.5-0.2,0.7-0.3c0.2-0.1,0.4-0.3,0.6-0.5c0.2-0.2,0.3-0.4,0.4-0.6l0.9,0.3c-0.1,0.3-0.3,0.6-0.5,0.8
		c-0.2,0.3-0.5,0.5-0.8,0.7c-0.3,0.2-0.6,0.3-1,0.4C211.8,61,211.4,61,211,61z M214.1,56.2c0-0.4-0.1-0.8-0.3-1.2
		c-0.2-0.4-0.4-0.7-0.7-1c-0.3-0.3-0.6-0.5-0.9-0.6c-0.4-0.1-0.8-0.2-1.1-0.2c-0.4,0-0.8,0.1-1.1,0.2c-0.4,0.1-0.7,0.4-0.9,0.6
		c-0.3,0.3-0.5,0.6-0.7,1c-0.2,0.4-0.3,0.8-0.3,1.2L214.1,56.2z"/>
	<path class="st0" d="M219.5,61c-0.6,0-1.3-0.1-1.9-0.3c-0.6-0.2-1.1-0.5-1.6-0.9l0.5-0.7c0.4,0.4,0.9,0.6,1.4,0.9
		c0.5,0.2,1,0.3,1.6,0.3c0.6,0,1.1-0.1,1.6-0.4c0.4-0.3,0.6-0.7,0.6-1.2c0-0.2,0-0.4-0.2-0.6c-0.1-0.2-0.3-0.3-0.5-0.4
		c-0.2-0.1-0.5-0.2-0.8-0.3c-0.3-0.1-0.7-0.2-1.1-0.3s-0.9-0.2-1.2-0.4c-0.3-0.1-0.6-0.2-0.9-0.4c-0.2-0.1-0.4-0.3-0.5-0.6
		c-0.1-0.3-0.2-0.5-0.2-0.8c0-0.4,0.1-0.8,0.2-1.1c0.2-0.3,0.4-0.6,0.7-0.8c0.3-0.2,0.6-0.4,1-0.5c0.4-0.1,0.8-0.2,1.2-0.2
		c0.6,0,1.2,0.1,1.7,0.3c0.5,0.2,0.9,0.5,1.3,0.8l-0.5,0.6c-0.3-0.3-0.7-0.6-1.1-0.7c-0.4-0.2-0.9-0.2-1.4-0.2c-0.3,0-0.5,0-0.8,0.1
		c-0.2,0.1-0.5,0.2-0.6,0.3c-0.2,0.1-0.3,0.3-0.4,0.5c-0.1,0.2-0.2,0.5-0.2,0.7c0,0.2,0,0.4,0.1,0.5c0.1,0.2,0.2,0.3,0.4,0.4
		c0.2,0.1,0.4,0.2,0.6,0.3c0.3,0.1,0.6,0.2,0.9,0.2c0.5,0.1,1,0.3,1.4,0.4c0.4,0.1,0.7,0.2,1,0.4c0.3,0.2,0.5,0.4,0.6,0.6
		c0.1,0.3,0.2,0.6,0.2,0.9c0,0.7-0.3,1.4-0.9,1.8C221.1,60.8,220.3,61.1,219.5,61z"/>
	<path class="st0" d="M228,60.9V49.5h4.8c0.5,0,0.9,0.1,1.4,0.3c0.4,0.2,0.8,0.5,1.1,0.8c0.3,0.3,0.5,0.7,0.7,1.1
		c0.2,0.4,0.3,0.9,0.2,1.3c0,0.4-0.1,0.8-0.2,1.2c-0.1,0.4-0.3,0.7-0.5,1c-0.2,0.3-0.5,0.6-0.8,0.8c-0.3,0.2-0.6,0.4-1,0.4l2.8,4.4
		h-1.3l-2.7-4.2h-3.4v4.2H228z M229.1,55.7h3.7c0.3,0,0.6-0.1,0.9-0.2c0.3-0.1,0.5-0.3,0.7-0.6c0.2-0.3,0.3-0.5,0.4-0.8
		c0.1-0.3,0.2-0.7,0.2-1c0-0.3-0.1-0.7-0.2-1c-0.1-0.3-0.3-0.6-0.5-0.8c-0.2-0.2-0.5-0.4-0.7-0.6c-0.3-0.1-0.6-0.2-0.9-0.2h-3.6
		L229.1,55.7z"/>
	<path class="st0" d="M241.6,61c-0.6,0-1.1-0.1-1.7-0.3c-0.5-0.2-1-0.6-1.3-1c-0.4-0.4-0.7-0.9-0.9-1.4c-0.2-0.5-0.3-1.1-0.3-1.7
		c0-0.6,0.1-1.1,0.3-1.7c0.2-0.5,0.5-1,0.9-1.4c1.2-1.2,3.1-1.6,4.6-0.9c0.5,0.2,0.9,0.5,1.3,0.9c0.4,0.4,0.6,0.9,0.9,1.4
		c0.2,0.5,0.3,1.1,0.3,1.6v0.3c0,0.1,0,0.1,0,0.2h-7.1c0,0.4,0.1,0.8,0.3,1.2c0.2,0.4,0.4,0.7,0.7,1c0.3,0.3,0.6,0.5,0.9,0.7
		c0.4,0.2,0.8,0.2,1.1,0.2c0.3,0,0.5,0,0.8-0.1c0.3-0.1,0.5-0.2,0.7-0.3c0.2-0.1,0.4-0.3,0.6-0.5c0.2-0.2,0.3-0.4,0.4-0.6l0.9,0.3
		c-0.1,0.3-0.3,0.6-0.5,0.8c-0.2,0.3-0.5,0.5-0.8,0.7c-0.3,0.2-0.6,0.3-1,0.4C242.4,60.9,242,61,241.6,61z M244.7,56.2
		c0-0.4-0.1-0.8-0.3-1.2c-0.2-0.4-0.4-0.7-0.7-1c-0.3-0.3-0.6-0.5-0.9-0.6c-0.7-0.3-1.6-0.3-2.3,0c-0.4,0.1-0.7,0.4-1,0.6
		c-0.3,0.3-0.5,0.6-0.6,1c-1.2,2.7-0.1-1.2-0.3,1.2L244.7,56.2z"/>
	<path class="st0" d="M250.8,61c-0.5,0-1.1-0.1-1.6-0.4c-0.5-0.2-0.9-0.6-1.2-1c-0.4-0.4-0.6-0.9-0.8-1.4c-0.2-0.5-0.3-1-0.3-1.6
		c0-0.6,0.1-1.1,0.3-1.7c0.2-0.5,0.4-1,0.8-1.3c0.3-0.4,0.8-0.8,1.2-1c0.5-0.2,1-0.4,1.6-0.3c0.7,0,1.3,0.2,1.9,0.5
		c0.5,0.4,1,0.8,1.3,1.3v-1.7h1v8.4c0,0.5-0.1,1.1-0.3,1.5c-0.2,0.4-0.5,0.8-0.9,1.1c-0.4,0.3-0.8,0.5-1.3,0.7
		c-0.5,0.1-1,0.2-1.6,0.2c-0.8,0-1.6-0.1-2.3-0.5c-0.6-0.3-1.1-0.8-1.4-1.4l0.7-0.5c0.3,0.5,0.8,0.9,1.3,1.2
		c0.6,0.3,1.2,0.4,1.8,0.4c0.4,0,0.8-0.1,1.1-0.2c0.3-0.1,0.7-0.3,0.9-0.5c0.3-0.2,0.5-0.5,0.6-0.8c0.2-0.4,0.2-0.8,0.2-1.2v-1.7
		c-0.3,0.5-0.8,1-1.3,1.3C252,60.8,251.4,61,250.8,61z M251.1,60.1c0.3,0,0.6-0.1,0.9-0.2c0.3-0.1,0.6-0.3,0.8-0.5
		c0.2-0.2,0.5-0.4,0.6-0.7c0.2-0.2,0.3-0.5,0.3-0.8v-2.6c-0.1-0.3-0.3-0.6-0.5-0.8c-0.2-0.3-0.4-0.5-0.7-0.7
		c-0.3-0.2-0.5-0.3-0.8-0.4c-0.3-0.1-0.6-0.2-0.9-0.2c-0.4,0-0.9,0.1-1.3,0.3c-0.4,0.2-0.7,0.5-0.9,0.8c-0.3,0.3-0.5,0.7-0.6,1.1
		c-0.1,0.4-0.2,0.8-0.2,1.2c0,0.9,0.3,1.7,0.9,2.3c0.3,0.3,0.6,0.5,1,0.7C250.2,60,250.7,60.1,251.1,60.1L251.1,60.1z"/>
	<path class="st0" d="M256.6,50.8v-1.6h1.1v1.6H256.6z M256.6,60.9v-8.3h1.1v8.3L256.6,60.9z"/>
	<path class="st0" d="M262.8,61c-0.6,0-1.3-0.1-1.9-0.3c-0.6-0.2-1.1-0.5-1.6-0.9l0.5-0.7c0.4,0.4,0.9,0.6,1.4,0.9
		c0.5,0.2,1,0.3,1.6,0.3c0.6,0,1.1-0.1,1.6-0.4c0.4-0.3,0.6-0.7,0.6-1.2c0-0.2,0-0.4-0.2-0.6c-0.1-0.2-0.3-0.3-0.5-0.4
		c-0.2-0.1-0.5-0.2-0.8-0.3c-0.3-0.1-0.7-0.2-1.1-0.3s-0.9-0.2-1.2-0.4c-0.3-0.1-0.6-0.2-0.9-0.4c-0.2-0.1-0.4-0.3-0.5-0.6
		c-0.1-0.3-0.2-0.5-0.2-0.8c0-0.4,0.1-0.8,0.2-1.1c0.2-0.3,0.4-0.6,0.7-0.8c0.3-0.2,0.6-0.4,1-0.5c0.4-0.1,0.8-0.2,1.2-0.2
		c0.6,0,1.2,0.1,1.7,0.3c0.5,0.2,0.9,0.5,1.3,0.8l-0.5,0.6c-0.3-0.3-0.7-0.6-1.1-0.7c-0.4-0.2-0.9-0.2-1.4-0.2c-0.3,0-0.5,0-0.8,0.1
		c-0.2,0.1-0.5,0.2-0.6,0.3c-0.2,0.1-0.3,0.3-0.4,0.5c-0.1,0.2-0.2,0.5-0.2,0.7c0,0.2,0,0.4,0.1,0.5c0.1,0.2,0.2,0.3,0.4,0.4
		c0.2,0.1,0.4,0.2,0.6,0.3c0.3,0.1,0.6,0.2,1,0.2c0.5,0.1,1,0.3,1.4,0.4c0.4,0.1,0.7,0.2,1,0.4c0.3,0.2,0.5,0.4,0.6,0.6
		c0.1,0.3,0.2,0.6,0.2,0.9c0,0.7-0.3,1.4-0.9,1.8C264.5,60.9,263.6,61.1,262.8,61z"/>
	<path class="st0" d="M271.8,60.5c-0.1,0-0.2,0.1-0.3,0.1c-0.1,0-0.3,0.1-0.4,0.2c-0.2,0.1-0.4,0.1-0.5,0.1c-0.2,0-0.4,0.1-0.6,0.1
		c-0.2,0-0.5,0-0.7-0.1c-0.2-0.1-0.4-0.2-0.6-0.3c-0.2-0.1-0.3-0.3-0.4-0.5c-0.1-0.2-0.1-0.5-0.1-0.7v-6H267v-0.9h1.1v-2.8h1.1v2.8
		h1.9v0.9h-1.9V59c0,0.3,0.1,0.5,0.3,0.7c0.2,0.1,0.4,0.2,0.7,0.2c0.3,0,0.6,0,0.8-0.2c0.2-0.1,0.3-0.1,0.4-0.2L271.8,60.5z"/>
	<path class="st0" d="M276.4,61c-0.6,0-1.1-0.1-1.7-0.3c-0.5-0.2-1-0.6-1.3-1c-0.4-0.4-0.7-0.9-0.9-1.4c-0.2-0.5-0.3-1.1-0.3-1.6
		c0-0.6,0.1-1.1,0.3-1.7c0.2-0.5,0.5-1,0.9-1.4c0.8-0.8,1.9-1.3,3-1.3c0.6,0,1.1,0.1,1.7,0.3c0.5,0.2,0.9,0.6,1.2,1
		c0.4,0.4,0.6,0.9,0.9,1.4c0.2,0.5,0.3,1.1,0.3,1.6v0.3c0,0.1,0,0.1,0,0.2h-7.1c0,0.4,0.1,0.8,0.3,1.2c0.2,0.4,0.4,0.7,0.7,1
		c0.3,0.3,0.6,0.5,1,0.7c0.4,0.2,0.8,0.2,1.1,0.2c0.3,0,0.5,0,0.8-0.1c0.3-0.1,0.5-0.2,0.7-0.3c0.2-0.1,0.4-0.3,0.6-0.5
		c0.2-0.2,0.3-0.4,0.4-0.6l0.9,0.3c-0.1,0.3-0.3,0.6-0.5,0.8c-0.2,0.3-0.5,0.5-0.8,0.7c-0.3,0.2-0.6,0.3-1,0.4
		C277.2,61,276.8,61,276.4,61z M279.5,56.2c0-0.4-0.1-0.8-0.3-1.2c-0.2-0.4-0.4-0.7-0.7-1c-0.9-0.8-2.1-1.1-3.2-0.6
		c-0.4,0.1-0.7,0.4-1,0.6c-0.3,0.3-0.5,0.6-0.7,1c-0.2,0.4-0.3,0.8-0.3,1.2L279.5,56.2z"/>
	<path class="st0" d="M286.3,53.5c-0.7,0-1.4,0.2-1.9,0.6c-0.5,0.4-0.9,0.9-1.1,1.6v5.2h-1.1v-8.3h1v2c0.3-0.6,0.7-1.1,1.2-1.5
		c0.5-0.4,1.1-0.5,1.7-0.5h0.2L286.3,53.5z"/>
</g>
</svg>
